<!-- Generator: Adobe Illustrator 21.1.0, SVG Export Plug-In  -->
<svg version="1.1"
	 xmlns="http://www.w3.org/2000/svg" xmlns:xlink="http://www.w3.org/1999/xlink" xmlns:a="http://ns.adobe.com/AdobeSVGViewerExtensions/3.0/"
	 x="0px" y="0px" width="12.4px" height="15px" viewBox="0 0 12.4 15" style="overflow:scroll;enable-background:new 0 0 12.4 15;"
	 xml:space="preserve">
<style type="text/css">
	.st0{fill:#B1B3BD;}
</style>
<defs>
</defs>
<g>
	<path class="st0" d="M12.4,3.3C12.4,3.3,12.4,3.3,12.4,3.3c0-0.1,0-0.1,0-0.1c0,0,0,0,0,0l-3-3.1c0,0,0,0,0,0C9.3,0,9.2,0,9.2,0
		c0,0,0,0,0,0c0,0,0,0,0,0H3.3C2.7,0,2.2,0.5,2.2,1.1v1.3c0,0,0,0-0.1,0h-1C0.5,2.3,0,2.8,0,3.4v10.5C0,14.5,0.5,15,1.1,15h8.1
		c0.6,0,1.1-0.5,1.1-1.1v-1c0-0.1-0.1-0.2-0.2-0.2h1.3c0.6,0,1.1-0.5,1.1-1.1L12.4,3.3C12.4,3.3,12.4,3.3,12.4,3.3L12.4,3.3
		C12.4,3.3,12.4,3.3,12.4,3.3z M9.4,0.8l2.3,2.4H9.4V0.8z M9.8,12.9v1c0,0.4-0.3,0.7-0.7,0.7H1.1c-0.4,0-0.7-0.3-0.7-0.7V3.4
		c0-0.4,0.3-0.7,0.7-0.7h1c0,0,0,0,0.1,0v8.8c0,0.6,0.5,1.1,1.1,1.1H10C9.9,12.7,9.8,12.8,9.8,12.9z M12,11.6c0,0.4-0.3,0.7-0.7,0.7
		H3.3c-0.4,0-0.7-0.3-0.7-0.7V1.1c0-0.4,0.3-0.7,0.7-0.7h5.7v2.9c0,0.1,0.1,0.2,0.2,0.2H12V11.6z"/>
</g>
</svg>
