<?xml version="1.0" encoding="iso-8859-1"?>
<!-- Generator: Adobe Illustrator 16.0.0, SVG Export Plug-In . SVG Version: 6.00 Build 0)  -->
<!DOCTYPE svg PUBLIC "-//W3C//DTD SVG 1.1//EN" "http://www.w3.org/Graphics/SVG/1.1/DTD/svg11.dtd">
<svg version="1.1" id="Capa_1" xmlns="http://www.w3.org/2000/svg" xmlns:xlink="http://www.w3.org/1999/xlink" x="0px" y="0px"
	 width="440.151px" height="440.15px" viewBox="0 0 440.151 440.15" style="enable-background:new 0 0 440.151 440.15;"
	 xml:space="preserve">
<g>
	<g>
		<path style="fill:#030303;" d="M185.261,201.392L2.402,384.257l55.894,55.894l182.856-182.862l84.192-84.189l-55.899-55.894
			L185.261,201.392z M58.29,423.585l-39.337-39.334l174.585-174.585l39.334,39.332L58.29,423.585z M269.445,133.768l39.34,39.337
			l-67.633,67.624l-39.334-39.337L269.445,133.768z"/>
		<polygon style="fill:#030303;" points="389.523,214.438 401.233,214.432 401.233,177.916 437.749,177.916 437.749,166.206 
			401.233,166.206 401.233,129.693 389.523,129.693 389.523,166.206 353.013,166.206 353.013,177.916 389.523,177.916 		"/>
		<polygon style="fill:#030303;" points="402.492,255.55 402.492,243.84 365.976,243.84 365.976,207.33 354.271,207.33 
			354.271,243.84 317.75,243.84 317.75,255.55 354.271,255.55 354.271,292.064 365.976,292.064 365.976,255.55 		"/>
		<polygon style="fill:#030303;" points="313.851,36.513 277.335,36.513 277.335,0 265.625,0 265.625,36.513 229.116,36.513 
			229.116,48.223 265.625,48.223 265.625,84.735 277.335,84.735 277.335,48.223 313.851,48.223 		"/>
		<polygon style="fill:#030303;" points="236.229,71.778 199.71,71.778 199.71,35.261 188.006,35.261 188.006,71.778 
			151.488,71.778 151.488,83.483 188.006,83.483 188.006,120.004 199.71,120.004 199.71,83.483 236.229,83.483 		"/>
	</g>
</g>
<g>
</g>
<g>
</g>
<g>
</g>
<g>
</g>
<g>
</g>
<g>
</g>
<g>
</g>
<g>
</g>
<g>
</g>
<g>
</g>
<g>
</g>
<g>
</g>
<g>
</g>
<g>
</g>
<g>
</g>
</svg>
