<?xml version="1.0" encoding="UTF-8"?>
<svg xmlns="http://www.w3.org/2000/svg" width="630" height="490">
	<clipPath id="flag">
		<rect width="200" height="120"/>
	</clipPath>
	<clipPath id="flag2">
		<rect width="240" height="120"/>
	</clipPath>
	<g clip-path="url(#flag)" transform="translate(5,5)">
		<rect width="200" height="120" fill="#fff"/>
		<path d="M 100,0 V 120 M 0,60 H 200" stroke="#cf142b" stroke-width="24"/>
		<rect width="200" height="120" fill="none" stroke="#000"/>
	</g>
	<g clip-path="url(#flag)" transform="translate(285,5)">
		<rect width="200" height="120" fill="#0072c6"/>
		<path d="M 0,0 L 200,120 M 200,0 L 0,120" stroke="#fff" stroke-width="24"/>
		<rect width="200" height="120" fill="none" stroke="#000"/>
	</g>
	<g clip-path="url(#flag)" transform="translate(145,185)">
		<rect width="200" height="120" fill="#00247d"/>
		<path d="M 0,0 L 200,120 M 200,0 L 0,120" stroke="#fff" stroke-width="24"/>
		<path d="M 100,0 V 120 M 0,60 H 200" stroke="#fff" stroke-width="40"/>
		<path d="M 100,0 V 120 M 0,60 H 200" stroke="#cf142b" stroke-width="24"/>
		<rect width="200" height="120" fill="none" stroke="#000"/>
	</g>
	<g clip-path="url(#flag)" transform="translate(425,185)">
		<rect width="200" height="120" fill="#fff"/>
		<path d="M 0,0 L 200,120 M 200,0 L 0,120" stroke="#cf142b" stroke-width="24"/>
		<rect width="200" height="120" fill="none" stroke="#000"/>
	</g>
	<g clip-path="url(#flag2)" transform="translate(245,365)">
		<rect width="240" height="120" fill="#00247d"/>
		<path d="M 0,0 L 240,120 M 240,0 L 0,120" stroke="#fff" stroke-width="24"/>
		<path d="M 0,0 L 240,120 M 240,0 L 0,120" stroke="#cf142b" stroke-width="16"/>
		<path d="M 120,60 L 0,0 h 24 l 96,48 z L 240,0 v 12 l -96,48 z L 240,120 h -24 l -96,-48 z L 0,120 v -12 l 96,-48 z" fill="#fff"/>
		<path d="M 120,0 V 120 M 0,60 H 240" stroke="#fff" stroke-width="40"/>
		<path d="M 120,0 V 120 M 0,60 H 240" stroke="#cf142b" stroke-width="24"/>
		<rect width="240" height="120" fill="none" stroke="#000"/>
	</g>
	<path d="M 245,50 v 30 m -15,-15 h 30" stroke="#000" stroke-width="4"/>
	<path d="M 242,100 h 6 v 30 h 9 l -12,30 l -12,-30 h 9 z" fill="#000"/>
	<path d="M 385,230 v 30 m -15,-15 h 30" stroke="#000" stroke-width="4"/>
	<path d="M 382,280 h 6 v 30 h 9 l -12,30 l -12,-30 h 9 z" fill="#000"/>
</svg>