<?xml version="1.0" encoding="utf-8"?>
<!-- Generator: Adobe Illustrator 20.1.0, SVG Export Plug-In . SVG Version: 6.00 Build 0)  -->
<svg version="1.1" id="рус" xmlns="http://www.w3.org/2000/svg" xmlns:xlink="http://www.w3.org/1999/xlink" x="0px" y="0px"
	 viewBox="0 0 461.7 109.1" style="enable-background:new 0 0 461.7 109.1;" xml:space="preserve">
<style type="text/css">
	.st0{enable-background:new    ;}
	.st1{fill:#66AC00;}
</style>
<title>P24_Corporate_logo_ ukr</title>
<g class="st0">
	<path d="M117.5,75.7H134v17.6h2.6v8.7h-3.3v-5.8h-18.6v5.8h-3.3v-8.7h2.1C116.3,90.1,117.6,84.2,117.5,75.7z M120.9,78.6
		c-0.3,6.7-1.5,11.6-3.6,14.8H130V78.6H120.9z"/>
	<path d="M142.9,75.7h18.6v20.5h-4V78.6h-10.6v10.2c0,2.4-0.1,4-0.3,4.7s-0.7,1.4-1.5,2s-2,0.8-3.5,0.8c-0.9,0-2-0.1-3.2-0.2v-2.9
		h1.8c0.8,0,1.4-0.1,1.8-0.2c0.4-0.1,0.6-0.4,0.7-0.7s0.2-1.4,0.2-3.1V75.7z"/>
	<path d="M186,75.7v20.5h-4v-8h-2.3c-1.4,0-2.5,0.2-3.1,0.5c-0.7,0.3-1.7,1.3-3,3l-3.5,4.5h-5l4.3-5.5c1.3-1.7,2.6-2.6,3.9-2.9
		c-2.3-0.3-4-1-5.1-2.1c-1.1-1.2-1.7-2.5-1.7-4c0-1.8,0.7-3.2,2.2-4.3c1.4-1.1,3.5-1.7,6.3-1.7H186z M182,78.6h-5.7
		c-2.4,0-3.9,0.3-4.6,1c-0.7,0.6-1,1.4-1,2.3c0,1.2,0.5,2.1,1.5,2.7c1,0.6,2.8,0.9,5.4,0.9h4.4V78.6z"/>
	<path d="M222,67.3l3.5,0c-0.2,1.4-0.5,2.3-1.1,2.9c-0.5,0.5-1.2,0.9-2.1,1c-0.9,0.2-2.5,0.2-5,0.2c-3.3,0-5.6,0.3-6.7,0.8
		c-1.2,0.6-2.1,1.4-2.6,2.7s-0.8,2.8-0.9,4.7c1-1.3,2.2-2.3,3.5-2.9c1.3-0.6,2.9-1,4.6-1c3.1,0,5.7,0.9,7.7,2.8c2,1.8,3,4.3,3,7.5
		c0,2.4-0.5,4.4-1.5,5.9c-1,1.5-2.2,2.7-3.6,3.6c-1.4,0.8-3.3,1.3-5.7,1.3c-2.8,0-5-0.6-6.5-1.7s-2.7-2.5-3.6-4.3
		c-0.8-1.7-1.2-4.8-1.2-9.1c0-5.4,1.1-9.1,3.2-10.9c2.1-1.9,5.4-2.8,9.7-2.8c2.7,0,4.3,0,4.6-0.1C221.6,67.7,221.9,67.5,222,67.3z
		 M221.8,85.9c0-2.1-0.6-3.9-1.7-5.3c-1.2-1.4-2.8-2-4.9-2c-2.2,0-3.9,0.7-5.1,2.2c-1.2,1.4-1.8,3.4-1.8,5.8c0,2.4,0.7,4.2,2,5.5
		c1.3,1.3,3,1.9,4.9,1.9c2,0,3.6-0.7,4.8-2.2S221.8,88.3,221.8,85.9z"/>
	<path d="M230.8,71.9v-4h4v4H230.8z M230.8,96.2V75.7h4v20.5H230.8z"/>
	<path d="M246.1,87v-2.7c1.7,0,2.8-0.1,3.5-0.2s1.2-0.4,1.7-0.9c0.5-0.5,0.8-1.2,0.8-1.9c0-0.9-0.4-1.7-1.1-2.2
		c-0.7-0.6-1.6-0.8-2.8-0.8c-2.2,0-3.8,1.2-4.7,3.5l-3.8-0.5c1.2-3.8,4-5.8,8.6-5.8c2.5,0,4.5,0.6,5.9,1.8c1.4,1.2,2.1,2.6,2.1,4.3
		c0,1.7-0.9,3-2.8,4c1.2,0.6,2.1,1.3,2.7,2.1c0.6,0.9,0.9,1.9,0.9,3c0,1.8-0.8,3.3-2.3,4.5s-3.7,1.7-6.5,1.7c-5.4,0-8.5-2.1-9.3-6.2
		l3.8-0.7c0.3,1.3,1,2.3,2.1,3c1,0.7,2.2,1.1,3.6,1.1c1.3,0,2.5-0.3,3.4-1c0.9-0.7,1.3-1.5,1.3-2.5c0-0.8-0.3-1.5-0.8-2.1
		c-0.6-0.6-1.2-1-1.8-1.1S248.6,87,247,87C246.8,87,246.5,87,246.1,87z"/>
	<path d="M261.7,75.7h4v8.5h11.1v-8.5h4v20.5h-4v-9.1h-11.1v9.1h-4V75.7z"/>
	<path d="M302.9,89.6l4.1,0.4c-0.7,2.1-1.9,3.7-3.6,4.9c-1.8,1.2-4,1.7-6.7,1.7c-3.4,0-6.2-0.9-8.2-2.8c-2-1.8-3-4.4-3-7.8
		c0-3.4,1-6.1,3.1-8c2-1.9,4.7-2.9,7.9-2.9c3.2,0,5.7,0.9,7.7,2.8c2,1.9,3,4.5,3,7.9c0,0.2,0,0.5,0,0.9h-17.6c0.1,2.3,0.9,4,2.2,5.2
		s3,1.8,4.9,1.8c1.5,0,2.7-0.3,3.8-1C301.5,92.2,302.3,91.1,302.9,89.6z M289.8,84H303c-0.2-1.7-0.7-3-1.5-3.9c-1.3-1.3-2.9-2-5-2
		c-1.8,0-3.4,0.5-4.6,1.6C290.6,80.8,289.9,82.2,289.8,84z"/>
	<path d="M327.5,88.7l3.9,0.4c-0.4,2.4-1.5,4.2-3.3,5.5s-3.9,2-6.5,2c-3.2,0-5.8-0.9-7.8-2.8c-2-1.8-2.9-4.5-2.9-7.9
		c0-2.2,0.4-4.2,1.3-5.8s2.1-2.9,3.9-3.7s3.6-1.2,5.6-1.2c2.6,0,4.7,0.6,6.3,1.7c1.6,1.1,2.7,2.7,3.1,4.8l-3.9,0.5
		c-0.4-1.4-1-2.4-2-3.1c-0.9-0.7-2.1-1-3.4-1c-2,0-3.6,0.6-4.9,1.9c-1.3,1.3-1.9,3.2-1.9,6c0,2.8,0.6,4.8,1.8,6s2.8,1.9,4.8,1.9
		c1.6,0,2.9-0.4,3.9-1.3C326.5,91.8,327.2,90.5,327.5,88.7z"/>
	<path d="M334.6,104.1l-0.4-3.3c0.9,0.2,1.6,0.3,2.3,0.3c0.9,0,1.6-0.1,2.1-0.4c0.5-0.3,1-0.6,1.3-1.1c0.3-0.3,0.7-1.2,1.2-2.6
		c0.1-0.2,0.2-0.5,0.4-0.8l-8.9-20.5h4.3l4.9,11.9c0.6,1.5,1.2,3.1,1.7,4.7c0.5-1.6,1-3.2,1.6-4.7l5-12h4l-9,20.9
		c-1,2.3-1.7,3.8-2.2,4.7c-0.7,1.1-1.5,2-2.4,2.5c-0.9,0.5-2,0.8-3.3,0.8C336.4,104.6,335.6,104.4,334.6,104.1z"/>
</g>
<path d="M48.9,65.3H2.4c-1.9,0-2.4,0.6-2.4,2.4v32c0,1.8,0.4,2.4,2.4,2.4h46.5c2,0,2.4-0.6,2.4-2.4v-32
	C51.3,65.9,50.8,65.3,48.9,65.3z"/>
<path d="M18,58.1h15.1v5h4.2v-7.2c0-1.9-1.1-1.9-1.9-1.9H15.7c-0.7,0-1.9,0-1.9,1.9V63H18V58.1z"/>
<polygon class="st1" points="0,0 0,41.2 25.5,41.2 25.5,25.5 76.5,25.5 76.5,76.5 64,76.5 64,102.1 102,102.1 102,0 "/>
<path d="M417.8,39.1v8.3h-36.2c0.4-3.2,1.6-6.3,3.5-9c2-2.8,5.8-6.5,11.6-11.2c4.7-3.8,7.5-6.3,8.6-7.7c1.3-1.5,2.1-3.5,2.1-5.5
	c0.1-1.7-0.6-3.4-1.9-4.6c-1.5-1.1-3.3-1.7-5.1-1.6c-1.9-0.1-3.7,0.5-5.1,1.7c-1.3,1.1-2,3-2.2,5.6l-10.3-0.9
	c0.6-4.9,2.5-8.5,5.8-10.6c3.6-2.3,7.9-3.4,12.1-3.2c5.3,0,9.5,1.2,12.5,3.7c2.9,2.2,4.6,5.6,4.6,9.3c0,2.1-0.4,4.1-1.3,6
	c-1.1,2.2-2.5,4.2-4.1,6c-2.1,2.2-4.4,4.2-6.8,6c-3.3,2.6-5.3,4.3-6.2,5.1c-0.8,0.8-1.5,1.6-2.1,2.5L417.8,39.1z"/>
<path d="M445,47.4V38h-22v-7.9l23.3-29.7h8.7v29.7h6.7V38H455v9.4H445z M445,30.1v-16l-12.4,16H445z"/>
<polygon class="st1" points="124.8,46.2 111.8,46.2 111.8,0 158.8,0 158.8,46.2 145.8,46.2 145.8,9 124.8,9 124.8,46.2 "/>
<path class="st1" d="M176.6,29.4c0-9.4,5.8-11.2,9.4-11.2s9.4,1.9,9.4,11.2c0,5.8-2.5,11.4-9.4,11.4C179,40.7,176.6,35.2,176.6,29.4
	z M165.1,12.7L165.1,12.7v45.7h12V42.8c4,4.4,10.6,4.7,12.2,4.7c11.5,0,18.5-7.3,18.5-18c0-11.1-7-18.1-18.3-18.1
	c-4.9-0.1-9.6,1.8-13,5.3h-0.2l0.1-4L165.1,12.7z"/>
<path class="st1" d="M237.8,42.2c-3.6,3.5-8.4,5.5-13.5,5.3c-13,0-13.5-9.8-13.5-13.8v-21h12v19.4c0,6.7,2.3,8.6,6.7,8.6
	c7.6,0,8.1-6.8,8.1-9.2V12.7h12v33.5h-12L237.8,42.2L237.8,42.2z"/>
<path class="st1" d="M267.1,19.4h6.5c3.4,0,6.3,0.5,6.3,3.3c0,3-4.6,3.1-6.6,3.1h-6.2L267.1,19.4L267.1,19.4z M255.1,12.7
	L255.1,12.7v33.5H279c8.7,0,14.7-1.7,14.7-8.6c0-5.3-2.9-7.6-9.6-8.8v-0.2c4.4-0.6,8.2-3.3,8.2-7.9c0-8.1-9.5-8.1-13.2-8.1
	L255.1,12.7z M267.1,32.1h7.4c5.7,0,6.9,1.7,6.9,4c0,1.5-0.8,3.4-6.7,3.4h-7.5L267.1,32.1L267.1,32.1z"/>
<path class="st1" d="M322.8,32.3c0,6.7-5.9,8.4-8.8,8.4c-2.2,0-6.2-0.7-6.2-3.9c0-3.8,4.5-4.5,7-4.8c4.7-0.7,4.3-0.5,7.9-1.8
	L322.8,32.3L322.8,32.3z M308.9,23.5L308.9,23.5c0-5,5.2-5.4,7.4-5.4c1.4,0,6.3,0.1,6.5,4.4v0.9c-0.2,3.3-3.4,2.6-12.3,3.8
	c-7.3,1-15,2.8-15,10.5c0,2.8,1.2,9.7,14,9.7c4.9,0,10.3-1.2,13.5-4.5h0.2l1,3.3h12.7v-0.6c-2.3-0.5-2.5-2.7-2.4-6.3l0.2-15.3
	c0.1-3.9-0.3-12.5-18.5-12.5c-4.4,0-18.4,0.4-18.9,12.1L308.9,23.5z"/>
<polygon class="st1" points="336.1,19.4 336.1,12.7 374.8,12.7 374.8,19.4 361.5,19.4 361.5,46.2 349.4,46.2 349.4,19.4 336.1,19.4 
	"/>
</svg>
