<?xml version="1.0" encoding="iso-8859-1"?>
<!-- Generator: Adobe Illustrator 19.0.0, SVG Export Plug-In . SVG Version: 6.00 Build 0)  -->
<svg version="1.1" id="Capa_1" xmlns="http://www.w3.org/2000/svg" xmlns:xlink="http://www.w3.org/1999/xlink" x="0px" y="0px"
	 viewBox="0 0 59.989 59.989" style="enable-background:new 0 0 59.989 59.989;" xml:space="preserve">
<g>
	<g>
		<path d="M59.698,21.909c-0.223-0.223-0.533-0.323-0.852-0.282l-6.44,0.938l-0.779-8.908l-10.521,4.906
			c-0.881,0.38-1.755,0.849-2.613,1.394c-0.528-1.092-1.131-2.121-1.822-3.047l-6.676-9.533l-6.659,9.509
			c-0.698,0.936-1.306,1.973-1.838,3.072c-0.856-0.545-1.725-1.011-2.586-1.382L8.364,13.657l-0.779,8.908l-6.44-0.938
			c-0.315-0.041-0.629,0.06-0.852,0.282c-0.224,0.224-0.328,0.539-0.282,0.852l1.412,9.695c1.314,9.016,9.718,17.419,18.732,18.731
			l9.05,1.319l0.005,0.03l0.051-0.021l0.589,0.086c0.049,0.007,0.097,0.011,0.145,0.011s0.096-0.004,0.145-0.011l0.611-0.089
			l0.041,0.017l0.003-0.023l9.039-1.318c9.016-1.313,17.419-9.716,18.731-18.731l1.413-9.695
			C60.026,22.448,59.922,22.133,59.698,21.909z M41.925,20.389l7.959-3.712l0.541,6.177l-1.274,0.185
			c-0.504,0.073-1.007,0.177-1.51,0.294c-0.111,0.026-0.222,0.052-0.333,0.081c-1.01,0.255-2.013,0.598-3.004,1.023
			c-0.076,0.033-0.151,0.066-0.227,0.099c-0.994,0.441-1.971,0.965-2.925,1.569c-0.054,0.034-0.107,0.069-0.161,0.103
			c-0.165,0.107-0.332,0.208-0.496,0.319c-0.065-0.443-0.145-0.881-0.234-1.317c-0.026-0.128-0.059-0.254-0.087-0.381
			c-0.072-0.324-0.149-0.646-0.234-0.965c-0.053-0.201-0.111-0.398-0.169-0.596c-0.067-0.225-0.138-0.448-0.211-0.671
			c-0.079-0.24-0.158-0.479-0.244-0.714c-0.008-0.021-0.014-0.043-0.022-0.065C40.148,21.253,41.026,20.775,41.925,20.389z
			 M10.108,16.677l7.986,3.725c0.877,0.377,1.75,0.853,2.604,1.417c-0.009,0.025-0.017,0.051-0.026,0.077
			c-0.082,0.224-0.158,0.453-0.233,0.681c-0.078,0.233-0.152,0.468-0.222,0.704c-0.056,0.192-0.112,0.383-0.164,0.577
			c-0.087,0.325-0.166,0.654-0.239,0.984c-0.027,0.123-0.058,0.244-0.084,0.368c-0.09,0.436-0.169,0.875-0.235,1.319
			c-0.161-0.109-0.325-0.209-0.487-0.313c-0.058-0.038-0.116-0.075-0.175-0.112c-0.952-0.603-1.927-1.125-2.919-1.566
			c-0.076-0.034-0.151-0.066-0.227-0.099c-0.99-0.426-1.994-0.769-3.004-1.024c-0.111-0.028-0.222-0.055-0.334-0.081
			c-0.503-0.117-1.006-0.221-1.51-0.294l-1.273-0.186L10.108,16.677z M20.445,49.209c-8.202-1.194-15.847-8.84-17.043-17.042
			l-1.219-8.368l5.228,0.761l0,0l3.141,0.457c0.458,0.067,0.914,0.161,1.367,0.267c0.165,0.039,0.331,0.085,0.496,0.129
			c0.28,0.074,0.558,0.156,0.835,0.244c0.209,0.067,0.419,0.136,0.628,0.211c0.201,0.072,0.399,0.153,0.599,0.233
			c1.796,0.722,3.554,1.74,5.204,3.042c3.165,2.499,5.604,5.802,6.937,9.265c0.025,0.065,0.052,0.13,0.076,0.195
			c0.18,0.485,0.332,0.973,0.468,1.462c0.027,0.099,0.061,0.196,0.086,0.295c0.146,0.567,0.265,1.134,0.348,1.7l1.22,8.368
			L20.445,49.209z M30.776,39.991c-0.147,0.59-0.27,1.183-0.357,1.781l-0.211,1.449l-0.017-0.165l-0.219,1.459l-0.4-2.743
			c-0.087-0.598-0.21-1.192-0.357-1.782c-0.07-0.283-0.163-0.563-0.247-0.844c-0.087-0.29-0.168-0.581-0.269-0.868
			c-0.129-0.374-0.28-0.742-0.432-1.11c-0.073-0.176-0.143-0.353-0.221-0.527c-0.189-0.425-0.395-0.843-0.613-1.26
			c-0.052-0.099-0.104-0.197-0.158-0.295c-0.25-0.46-0.515-0.914-0.799-1.361c-0.017-0.026-0.034-0.052-0.051-0.078
			c-1.143-1.782-2.554-3.445-4.195-4.933c-0.204-0.186-0.405-0.373-0.614-0.552c-0.09-0.077-0.172-0.161-0.263-0.236
			c0.028-0.285,0.058-0.57,0.096-0.852c0.02-0.149,0.034-0.301,0.058-0.449c0.081-0.517,0.179-1.029,0.296-1.534
			c0.02-0.086,0.045-0.169,0.066-0.254c0.108-0.44,0.227-0.876,0.362-1.305c0.031-0.1,0.065-0.198,0.098-0.297
			c0.144-0.434,0.299-0.862,0.471-1.283c0.577-1.418,1.295-2.736,2.159-3.894l5.038-7.193l5.055,7.218
			c0.736,0.987,1.373,2.09,1.903,3.279L37,21.47c0.066,0.151,0.124,0.309,0.187,0.463c0.175,0.429,0.334,0.866,0.48,1.308
			c0.032,0.096,0.065,0.192,0.095,0.289c0.135,0.428,0.253,0.862,0.36,1.301c0.021,0.088,0.047,0.174,0.068,0.262
			c0.117,0.504,0.214,1.014,0.295,1.53c0.024,0.151,0.038,0.305,0.059,0.457c0.038,0.281,0.068,0.564,0.095,0.848
			c-0.094,0.077-0.177,0.163-0.269,0.242c-0.201,0.172-0.394,0.352-0.59,0.53c-1.651,1.494-3.07,3.165-4.218,4.957
			c-0.014,0.022-0.029,0.044-0.043,0.066c-0.287,0.451-0.553,0.907-0.805,1.371c-0.051,0.094-0.102,0.189-0.151,0.283
			c-0.22,0.419-0.427,0.841-0.617,1.269c-0.077,0.171-0.145,0.344-0.217,0.517c-0.153,0.372-0.305,0.742-0.435,1.119
			c-0.099,0.284-0.18,0.572-0.266,0.859C30.941,39.422,30.846,39.704,30.776,39.991z M56.589,32.167
			c-1.195,8.202-8.84,15.847-17.042,17.042l-8.368,1.22l1.219-8.368c0.082-0.566,0.202-1.133,0.348-1.699
			c0.026-0.1,0.06-0.199,0.087-0.299c0.135-0.487,0.286-0.974,0.466-1.457c0.024-0.066,0.051-0.131,0.077-0.197
			c0.209-0.544,0.44-1.085,0.703-1.618l0,0c1.407-2.858,3.559-5.53,6.22-7.635l0.013-0.01c1.65-1.303,3.409-2.321,5.206-3.043
			c0.198-0.079,0.396-0.16,0.596-0.232c0.21-0.076,0.42-0.145,0.63-0.212c0.276-0.088,0.553-0.169,0.832-0.243
			c0.166-0.044,0.332-0.091,0.498-0.13c0.454-0.106,0.909-0.2,1.367-0.267l3.141-0.457l0,0l5.228-0.761L56.589,32.167z"/>
	</g>
</g>
<g>
</g>
<g>
</g>
<g>
</g>
<g>
</g>
<g>
</g>
<g>
</g>
<g>
</g>
<g>
</g>
<g>
</g>
<g>
</g>
<g>
</g>
<g>
</g>
<g>
</g>
<g>
</g>
<g>
</g>
</svg>
